# xmcd
#
# Track frame offsets:
# 150
# 12872
# 33726
# 47890
# 62226
# 90633
# 103862
# 115988
# 127832
# 142464
# 154498
# 166849
#
# Disc length: 2485 seconds
#
# Revision: 1
# Processed by: cddbd v1.5.1PL0 Copyright (c) Steve Scherf et al.
# Submitted via: CedeCatalogueitor 2.6.0.6 http://personales.ya.com/cdcatalogueitor
#
DISCID=ac09b30c
DTITLE=Willie Edwards - Everlasin' Tears
DYEAR=1900
DGENRE=
TTITLE0=Everlasin' Tears
TTITLE1=Dollar In
TTITLE2=Been A Long Time
TTITLE3=Read Between The Lines
TTITLE4=Helpless, Hopeless Feeling
TTITLE5=True What They Say
TTITLE6=Heart Of Deception
TTITLE7=Can't Create Desire
TTITLE8=Won't Be Back
TTITLE9=Bottom's Falling Out
TTITLE10=Company Store
TTITLE11=90s Blues
EXTD=
EXTT0=
EXTT1=
EXTT2=
EXTT3=
EXTT4=
EXTT5=
EXTT6=
EXTT7=
EXTT8=
EXTT9=
EXTT10=
EXTT11=
PLAYORDER=
